<?xml version="1.0" encoding="utf-8"?>
<!-- Generator: Adobe Illustrator 26.0.0, SVG Export Plug-In . SVG Version: 6.00 Build 0)  -->
<svg version="1.1" id="Layer_1" xmlns="http://www.w3.org/2000/svg" xmlns:xlink="http://www.w3.org/1999/xlink" x="0px" y="0px"
	 viewBox="0 0 30 30" style="enable-background:new 0 0 30 30;" xml:space="preserve">
<style type="text/css">
	.st0{fill:#3B6149;}
</style>
<path class="st0" d="M15,4c-2.2,0-4,1.8-4,4s1.8,4,4,4c2.2,0,4-1.8,4-4S17.2,4,15,4z M6,8c-2.2,0-4,1.8-4,4s1.8,4,4,4s4-1.8,4-4
	S8.2,8,6,8z M6,16H5c-2.2,0-4,1.8-4,4v3c0,0.6,0.4,1,1,1h26c0.5,0,1-0.4,1-1v-3c0-2.2-1.8-4-4-4h-1h-1c-0.9,0-1.6,0.3-2.3,0.7
	C20,15.1,18.3,14,16.3,14h-2.5c-2.1,0-3.8,1.1-4.4,2.7C8.7,16.3,7.9,16,7,16H6z M24,16c2.2,0,4-1.8,4-4s-1.8-4-4-4s-4,1.8-4,4
	S21.8,16,24,16z M6,10c1.1,0,2,0.9,2,2s-0.9,2-2,2s-2-0.9-2-2S4.9,10,6,10z M24,10c1.1,0,2,0.9,2,2s-0.9,2-2,2s-2-0.9-2-2
	S22.9,10,24,10z M5,18h2c1.1,0,2,0.9,2,2v2H3v-2C3,18.9,3.9,18,5,18z M23,18h2c1.1,0,2,0.9,2,2v2h-6v-2.1C21.1,18.9,21.9,18,23,18z"
	/>
</svg>
