<?xml version="1.0" encoding="utf-8"?>
<!-- Generator: Adobe Illustrator 26.0.0, SVG Export Plug-In . SVG Version: 6.00 Build 0)  -->
<svg version="1.1" id="Layer_1" xmlns="http://www.w3.org/2000/svg" xmlns:xlink="http://www.w3.org/1999/xlink" x="0px" y="0px"
	 viewBox="0 0 24 24" style="enable-background:new 0 0 24 24;" xml:space="preserve">
<style type="text/css">
	.st0{fill:#3B6149;}
</style>
<path class="st0" d="M12,2c-0.2,0-0.4,0.1-0.5,0.2L9.9,3.7L7.9,3.4c0,0-0.1,0-0.1,0C7.4,3.4,7.1,3.6,7,4L6.6,6.1l-1.8,1
	c-0.4,0.2-0.5,0.7-0.3,1L5.4,10l-0.9,1.9c-0.2,0.4,0,0.8,0.3,1l1.5,0.8L1,19l3,1l1,3l5.8-5.8l0.6,0.6c0.2,0.1,0.4,0.2,0.5,0.2
	s0.4-0.1,0.5-0.2l0.6-0.6L19,23l1-3l3-1l-5.3-5.3l1.5-0.8c0.4-0.2,0.5-0.7,0.3-1L18.6,10l0.9-1.9c0.2-0.4,0-0.8-0.3-1l-1.8-1L17,4
	c-0.1-0.4-0.4-0.7-0.8-0.7c0,0-0.1,0-0.1,0l-2.1,0.3l-1.5-1.5C12.4,2.1,12.2,2,12,2z M12,4.5l0.7,0.6l0.7,0.7l1-0.1l0.9-0.1l0.2,0.9
	l0.2,1l0.9,0.5l0.8,0.4l-0.4,0.8L16.4,10l0.4,0.9l0.4,0.8l-0.8,0.4l-0.9,0.5l-0.2,1l-0.2,0.9l-0.9-0.1l-1-0.1l-0.7,0.7L12,15.5
	l-0.7-0.6l-0.7-0.7l-1,0.1l-0.9,0.1l-0.2-0.9l-0.2-1l-0.9-0.5l-0.8-0.4l0.4-0.8L7.6,10L7.1,9.1L6.7,8.3l0.8-0.4l0.9-0.5l0.2-1
	l0.2-0.9l0.9,0.1l1,0.1l0.7-0.7L12,4.5z M7,15.9L7,16c0.1,0.4,0.4,0.7,0.8,0.7c0,0,0.1,0,0.1,0l0.8-0.1l-2.8,2.8l-0.3-0.9l-0.9-0.3
	L7,15.9z M17,15.9l2.3,2.3l-0.9,0.3l-0.3,0.9l-2.8-2.8l0.8,0.1c0,0,0.1,0,0.1,0c0.4,0,0.7-0.3,0.8-0.7L17,15.9z"/>
</svg>
