<?xml version="1.0" encoding="utf-8"?>
<!-- Generator: Adobe Illustrator 26.0.0, SVG Export Plug-In . SVG Version: 6.00 Build 0)  -->
<svg version="1.1" id="Layer_1" xmlns="http://www.w3.org/2000/svg" xmlns:xlink="http://www.w3.org/1999/xlink" x="0px" y="0px"
	 viewBox="0 0 24 24" style="enable-background:new 0 0 24 24;" xml:space="preserve">
<style type="text/css">
	.st0{fill:#3B6149;}
</style>
<path class="st0" d="M14.9,2c-0.2,0-0.3,0-0.5,0.1L12,3.3L9.5,2.1c-0.5-0.2-1.1,0-1.3,0.4L6.9,5L4.2,5.4C3.7,5.5,3.3,6,3.4,6.6
	l0.4,2.8l-1.9,2c-0.4,0.4-0.4,1,0,1.4l1.9,2l-0.4,2.7c-0.1,0.5,0.3,1,0.8,1.1L6.9,19l1.3,2.4c0.2,0.5,0.8,0.7,1.3,0.4l2.5-1.2h0
	l2.5,1.2c0.1,0.1,0.3,0.1,0.4,0.1c0.4,0,0.7-0.2,0.9-0.5l1.3-2.4l2.7-0.5c0.5-0.1,0.9-0.6,0.8-1.1l-0.4-2.8l1.9-2
	c0.4-0.4,0.4-1,0-1.4l-1.9-2l0.4-2.7c0.1-0.5-0.3-1-0.8-1.1L17.1,5l-1.3-2.4c-0.1-0.2-0.2-0.3-0.4-0.4C15.3,2.1,15.1,2,14.9,2z
	 M14.5,4.3l1.1,2c0.1,0.3,0.4,0.5,0.7,0.5l2.3,0.4l-0.3,2.2c0,0.3,0.1,0.6,0.3,0.8l1.6,1.7l-1.2,1.3l-0.3,0.4
	c-0.2,0.2-0.3,0.5-0.3,0.8l0.3,2.3l-2.2,0.4c-0.3,0.1-0.6,0.2-0.7,0.5l-1.1,2l-2-1c-0.1-0.1-0.3-0.1-0.4-0.1s-0.3,0-0.4,0.1l-2.1,1
	l-1.1-2c-0.1-0.3-0.4-0.5-0.7-0.5l-2.3-0.4l0.3-2.2c0-0.3-0.1-0.6-0.3-0.8L3.9,12l1.6-1.6c0.2-0.2,0.3-0.5,0.3-0.8L5.5,7.2l2.2-0.4
	C8,6.8,8.3,6.6,8.4,6.3l1.1-2l2,1c0.3,0.1,0.6,0.1,0.9,0L14.5,4.3z M15.3,9.3L11,13.6l-1.8-1.8l-1.4,1.4l3.2,3.2l5.7-5.7L15.3,9.3z"
	/>
</svg>
