<?xml version="1.0" encoding="utf-8"?>
<!-- Generator: Adobe Illustrator 26.0.0, SVG Export Plug-In . SVG Version: 6.00 Build 0)  -->
<svg version="1.1" id="Layer_1" xmlns="http://www.w3.org/2000/svg" xmlns:xlink="http://www.w3.org/1999/xlink" x="0px" y="0px"
	 viewBox="0 0 24 24" style="enable-background:new 0 0 24 24;" xml:space="preserve">
<style type="text/css">
	.st0{fill:#244030;}
</style>
<path class="st0" d="M12,2C8.1,2,5,5.1,5,9c0,4.5,6,11.8,6.2,12.1L12,22l0.8-0.9C13,20.8,19,13.5,19,9C19,5.1,15.9,2,12,2z M12,4
	c2.8,0,5,2.2,5,5c0,2.7-3.1,7.4-5,9.8c-1.9-2.5-5-7.1-5-9.8C7,6.3,9.2,4,12,4z M12,6.5c-1.4,0-2.5,1.1-2.5,2.5s1.1,2.5,2.5,2.5
	s2.5-1.1,2.5-2.5S13.4,6.5,12,6.5z"/>
</svg>
