<?xml version="1.0" encoding="utf-8"?>
<!-- Generator: Adobe Illustrator 26.0.0, SVG Export Plug-In . SVG Version: 6.00 Build 0)  -->
<svg version="1.1" id="Layer_1" xmlns="http://www.w3.org/2000/svg" xmlns:xlink="http://www.w3.org/1999/xlink" x="0px" y="0px"
	 viewBox="0 0 24 24" style="enable-background:new 0 0 24 24;" xml:space="preserve">
<style type="text/css">
	.st0{fill:#3B6149;}
</style>
<path class="st0" d="M13,2c-1.7,0-3,1.4-3,3c0,2.5,5.5,6.9,5.5,6.9S21,7.5,21,5c0-1.7-1.4-3-3-3c-1.6,0-2.5,1.1-2.5,1.1S14.6,2,13,2
	z M13,4c1,0,2.4,1.3,2.4,1.3S17,4,18,4c0.6,0,1,0.5,1,1c-0.1,0.7-1.6,2.6-3.5,4.3C13.6,7.6,12.1,5.7,12,5C12,4.5,12.5,4,13,4z
	 M20.6,12c-0.4,0-0.7,0.1-1,0.4L15,17h-4c-0.3,0-0.5-0.2-0.5-0.5S10.7,16,11,16h2c1.1,0,2-0.9,2-2v-1H8.7c-1.1,0-2.1,0.4-2.8,1.2
	L2,18l4,4l2-2h7.2c0.5,0,1-0.2,1.4-0.6l5-5c0.6-0.6,0.6-1.4,0-2C21.3,12.1,20.9,12,20.6,12z"/>
</svg>
