<?xml version="1.0" encoding="utf-8"?>
<!-- Generator: Adobe Illustrator 26.0.0, SVG Export Plug-In . SVG Version: 6.00 Build 0)  -->
<svg version="1.1" id="Layer_1" xmlns="http://www.w3.org/2000/svg" xmlns:xlink="http://www.w3.org/1999/xlink" x="0px" y="0px"
	 viewBox="0 0 24 24" style="enable-background:new 0 0 24 24;" xml:space="preserve">
<style type="text/css">
	.st0{fill:#3B6149;}
</style>
<path class="st0" d="M12,1c0,0-8,7-8,13c0,4.4,3.6,8,8,8s8-3.6,8-8C20,8,12,1,12,1z M12,3.8c2.4,2.4,6,6.8,6,10.2c0,3.3-2.7,6-6,6
	s-6-2.7-6-6C6,10.6,9.6,6.2,12,3.8z M12,20c1.7,0,3-1.3,3-3c0-3-3-6-3-6s-3,3-3,6C9,18.7,10.3,20,12,20z"/>
</svg>
