<svg width="189" height="66" viewBox="0 0 189 66" fill="none" xmlns="http://www.w3.org/2000/svg">
<path d="M71.7096 38.68V35.08H77.6496V45.67C74.7896 46.13 72.4696 46.36 70.6896 46.36C67.5096 46.36 65.3196 45.51 64.1196 43.81C62.9396 42.11 62.3496 39.41 62.3496 35.71C62.3496 32.01 62.9696 29.34 64.2096 27.7C65.4496 26.06 67.5596 25.24 70.5396 25.24C72.3996 25.24 74.4096 25.45 76.5696 25.87L77.6496 26.08L77.5296 29.29C75.1296 29.03 73.1596 28.9 71.6196 28.9C70.0996 28.9 69.0296 29.08 68.4096 29.44C67.7896 29.8 67.3296 30.47 67.0296 31.45C66.7496 32.41 66.6096 34.07 66.6096 36.43C66.6096 38.77 66.8996 40.41 67.4796 41.35C68.0596 42.29 69.2596 42.76 71.0796 42.76L73.5696 42.64V38.68H71.7096Z" fill="white"/>
<path d="M92.6895 35.68V41.92C92.7295 42.4 92.8095 42.74 92.9295 42.94C93.0495 43.12 93.2995 43.25 93.6795 43.33L93.5595 46.36C92.5395 46.36 91.7195 46.29 91.0995 46.15C90.4995 46.01 89.8895 45.73 89.2695 45.31C87.8295 46.01 86.3595 46.36 84.8595 46.36C81.7595 46.36 80.2095 44.72 80.2095 41.44C80.2095 39.84 80.6395 38.71 81.4995 38.05C82.3595 37.37 83.6795 36.97 85.4595 36.85L88.6695 36.61V35.68C88.6695 35.06 88.5295 34.64 88.2495 34.42C87.9695 34.18 87.5195 34.06 86.8995 34.06L81.2595 34.3L81.1395 31.51C83.2795 30.93 85.3095 30.64 87.2295 30.64C89.1695 30.64 90.5595 31.04 91.3995 31.84C92.2595 32.64 92.6895 33.92 92.6895 35.68ZM85.9395 39.64C84.8195 39.74 84.2595 40.34 84.2595 41.44C84.2595 42.54 84.7495 43.09 85.7295 43.09C86.4895 43.09 87.3195 42.97 88.2195 42.73L88.6695 42.61V39.4L85.9395 39.64Z" fill="white"/>
<path d="M96.5217 46V31H100.512V32.59C102.192 31.59 103.792 30.94 105.312 30.64V34.69C103.692 35.03 102.302 35.38 101.142 35.74L100.542 35.95V46H96.5217Z" fill="white"/>
<path d="M120.434 25V46H116.444V45.37C115.044 46.03 113.834 46.36 112.814 46.36C110.634 46.36 109.114 45.73 108.254 44.47C107.394 43.21 106.964 41.22 106.964 38.5C106.964 35.76 107.474 33.77 108.494 32.53C109.534 31.27 111.094 30.64 113.174 30.64C113.814 30.64 114.704 30.74 115.844 30.94L116.414 31.06V25H120.434ZM115.994 42.4L116.414 42.31V34.42C115.314 34.22 114.334 34.12 113.474 34.12C111.854 34.12 111.044 35.56 111.044 38.44C111.044 40 111.224 41.11 111.584 41.77C111.944 42.43 112.534 42.76 113.354 42.76C114.194 42.76 115.074 42.64 115.994 42.4Z" fill="white"/>
<path d="M127.449 40.21C127.469 41.13 127.709 41.8 128.169 42.22C128.649 42.62 129.329 42.82 130.209 42.82C132.069 42.82 133.729 42.76 135.189 42.64L136.029 42.55L136.089 45.52C133.789 46.08 131.709 46.36 129.849 46.36C127.589 46.36 125.949 45.76 124.929 44.56C123.909 43.36 123.399 41.41 123.399 38.71C123.399 33.33 125.609 30.64 130.029 30.64C134.389 30.64 136.569 32.9 136.569 37.42L136.269 40.21H127.449ZM132.609 37.15C132.609 35.95 132.419 35.12 132.039 34.66C131.659 34.18 130.989 33.94 130.029 33.94C129.089 33.94 128.419 34.19 128.019 34.69C127.639 35.17 127.439 35.99 127.419 37.15H132.609Z" fill="white"/>
<path d="M143.462 46H139.442V31H143.432V31.84C144.792 31.04 146.042 30.64 147.182 30.64C149.182 30.64 150.562 31.23 151.322 32.41C152.082 33.59 152.462 35.41 152.462 37.87V46H148.442V37.99C148.442 36.71 148.292 35.77 147.992 35.17C147.692 34.55 147.092 34.24 146.192 34.24C145.372 34.24 144.582 34.38 143.822 34.66L143.462 34.78V46Z" fill="white"/>
<path d="M159.324 40.21C159.344 41.13 159.584 41.8 160.044 42.22C160.524 42.62 161.204 42.82 162.084 42.82C163.944 42.82 165.604 42.76 167.064 42.64L167.904 42.55L167.964 45.52C165.664 46.08 163.584 46.36 161.724 46.36C159.464 46.36 157.824 45.76 156.804 44.56C155.784 43.36 155.274 41.41 155.274 38.71C155.274 33.33 157.484 30.64 161.904 30.64C166.264 30.64 168.444 32.9 168.444 37.42L168.144 40.21H159.324ZM164.484 37.15C164.484 35.95 164.294 35.12 163.914 34.66C163.534 34.18 162.864 33.94 161.904 33.94C160.964 33.94 160.294 34.19 159.894 34.69C159.514 35.17 159.314 35.99 159.294 37.15H164.484Z" fill="white"/>
<path d="M171.317 46V31H175.307V32.59C176.987 31.59 178.587 30.94 180.107 30.64V34.69C178.487 35.03 177.097 35.38 175.937 35.74L175.337 35.95V46H171.317Z" fill="white"/>
<g clip-path="url(#clip0_115_202)">
<path d="M26.4063 36.0732C24.0255 36.028 21.7598 35.0441 20.1067 33.3374C18.4535 31.6308 17.5477 29.3408 17.5882 26.97C17.5882 22.5403 23.7501 14.4047 24.981 12.8206L26.4207 11L27.8604 12.8206C29.0985 14.4047 35.2604 22.5403 35.2604 26.97C35.2794 28.1467 35.0655 29.3155 34.6308 30.4099C34.1962 31.5042 33.5493 32.5025 32.7271 33.3479C31.9049 34.1932 30.9235 34.869 29.8389 35.3366C28.7544 35.8042 27.588 36.0545 26.4063 36.0732V36.0732ZM26.4063 16.935C23.9012 20.4401 21.1874 24.9988 21.1874 26.97C21.1502 27.6754 21.2576 28.381 21.5031 29.0437C21.7485 29.7064 22.1269 30.3125 22.6152 30.8249C23.1035 31.3373 23.6914 31.7454 24.3432 32.0242C24.995 32.3031 25.6969 32.4469 26.4063 32.4469C27.1157 32.4469 27.8177 32.3031 28.4694 32.0242C29.1212 31.7454 29.7091 31.3373 30.1974 30.8249C30.6857 30.3125 31.0641 29.7064 31.3095 29.0437C31.555 28.381 31.6624 27.6754 31.6252 26.97C31.6252 24.9988 28.9042 20.4401 26.4063 16.935V16.935Z" fill="#EEBB4D"/>
<path d="M36.8083 47.6564C35.2041 47.6572 33.6599 47.0498 32.4892 45.9577C31.2374 44.7483 30.519 43.0935 30.492 41.3569C30.465 39.6203 31.1316 37.9441 32.3453 36.6968C34.4472 34.4676 40.8322 33.3064 42.7398 33.0053L45.0289 32.6398L44.813 34.9407C44.633 36.8545 43.8772 43.2769 41.7752 45.5061C41.141 46.1861 40.3723 46.7282 39.5175 47.0983C38.6627 47.4683 37.7404 47.6584 36.8083 47.6564V47.6564ZM40.897 36.9978C38.2048 37.5999 35.5918 38.4314 34.9367 39.1482C34.642 39.4144 34.4058 39.7385 34.2432 40.1001C34.0806 40.4617 33.9949 40.8529 33.9918 41.2491C33.9886 41.6453 34.0679 42.0379 34.2248 42.402C34.3816 42.7662 34.6125 43.094 34.9029 43.3648C35.1934 43.6356 35.537 43.8436 35.9122 43.9755C36.2874 44.1074 36.686 44.1605 37.0828 44.1314C37.4797 44.1022 37.8661 43.9915 38.2178 43.8062C38.5695 43.6209 38.8788 43.365 39.1262 43.0547C39.7741 42.3594 40.4651 39.7145 40.897 36.9978V36.9978Z" fill="#91B67A"/>
<path d="M16.1918 47.6564C15.2646 47.6544 14.3477 47.4625 13.4982 47.0926C12.6487 46.7226 11.8847 46.1826 11.2537 45.5061C9.15174 43.2769 8.37431 36.8545 8.21594 34.9407L8 32.6398L10.2891 33.0053C12.1967 33.3064 18.5817 34.4389 20.6909 36.6968C21.8912 37.9607 22.5541 39.6379 22.5409 41.3774C22.5409 42.2056 22.3764 43.0256 22.0568 43.7903C21.7372 44.5549 21.2688 45.249 20.6787 45.8326C20.0885 46.4163 19.3883 46.8779 18.6182 47.1909C17.8482 47.5039 17.0236 47.6621 16.1918 47.6564V47.6564ZM13.8811 43.0547C14.1377 43.3481 14.4498 43.5882 14.7996 43.7614C15.1494 43.9346 15.53 44.0375 15.9198 44.0641C16.3096 44.0908 16.7008 44.0406 17.0711 43.9166C17.4413 43.7926 17.7834 43.5971 18.0778 43.3414C18.352 43.0865 18.5702 42.7779 18.7189 42.4349C18.8675 42.092 18.9434 41.7222 18.9416 41.3487C18.9386 40.5256 18.6132 39.7361 18.0346 39.1482C17.3796 38.4314 14.7665 37.5999 12.0743 36.9978C12.5062 39.7145 13.1973 42.3594 13.8523 43.0547H13.8811Z" fill="#91B67A"/>
<path d="M28.3863 38.9475H24.7871V54H28.3863V38.9475Z" fill="#91B67A"/>
</g>
<defs>
<clipPath id="clip0_115_202">
<rect width="37" height="43" fill="white" transform="translate(8 11)"/>
</clipPath>
</defs>
</svg>
