<svg width="255" height="321" viewBox="0 0 255 321" fill="none" xmlns="http://www.w3.org/2000/svg">
<g clip-path="url(#clip0_508_5029)">
<path d="M154.245 274.779C157.738 254.833 143.234 244.606 129.205 234.719C123.113 230.421 116.796 225.974 112.243 220.842C108.269 216.369 106.227 210.336 106.782 204.702C106.963 202.483 107.617 200.334 108.7 198.397C109.782 196.46 111.27 194.778 113.064 193.462C122.404 186.443 133.124 183.818 145.843 185.444C169.98 188.554 203.609 189.738 216.94 164.255C220.291 157.849 220.871 152.09 218.646 147.163C213.493 135.646 194.334 130.525 180.352 126.785C176.945 125.879 173.725 125.015 171.191 124.181C148.429 116.701 146.84 93.7771 152.42 76.4286C154.961 68.501 158.002 60.5536 160.938 52.8646C163.077 47.2859 165.284 41.519 167.278 35.809L167.297 35.7107C167.324 30.9499 167.801 26.237 168.262 21.6807C168.931 15.0195 169.63 8.13239 168.933 0.976233C166.05 -28.6936 156.163 -49.6009 139.537 -61.1642C132.317 -66.1865 117.932 -73.8731 102.694 -68.9315C93.9035 -66.0826 87.7364 -59.1294 81.7714 -52.408C80.8773 -51.3977 79.9886 -50.3974 79.0971 -49.416C69.6001 -38.9676 60.529 -34.1763 49.6777 -33.8762C45.329 -33.759 41.102 -34.2173 37.0142 -34.6642C29.4539 -35.4887 22.2983 -36.2468 14.4683 -33.6771C3.97034 -30.2175 -4.89651 -21.7538 -12.7235 -14.2766C-13.79 -13.2657 -14.8373 -12.2658 -15.8736 -11.2859C-24.9594 -2.76895 -35.3228 7.27231 -43.7398 18.406C-46.0022 21.4031 -48.3249 25.0008 -50.7953 28.8516C-59.6807 42.632 -70.4189 59.2181 -86.0453 59.7612L-86.4021 60.4114C-70.2765 60.1647 -59.3256 43.2312 -50.268 29.1851C-47.8039 25.37 -45.4756 21.7622 -43.2326 18.7762C-34.8529 7.67838 -24.4939 -2.3306 -15.4376 -10.8421C-14.3998 -11.8167 -13.3486 -12.8129 -12.2841 -13.8308C-4.49637 -21.2688 4.31358 -29.677 14.6774 -33.0931C22.3877 -35.6376 29.4704 -34.8675 36.9656 -34.0528C41.0739 -33.6033 45.3162 -33.1408 49.7098 -33.2594C60.744 -33.563 69.9498 -38.415 79.5668 -49.0015C80.4624 -49.9849 81.3573 -50.9832 82.2515 -51.9964C88.1577 -58.6589 94.271 -65.5461 102.901 -68.3442C117.884 -73.2053 132.071 -65.6182 139.195 -60.6619C155.664 -49.2066 165.463 -28.4521 168.322 1.02689C169.011 8.12625 168.323 14.9849 167.651 21.6134C167.193 26.1631 166.718 30.8726 166.687 35.6486C164.696 41.3349 162.497 47.0799 160.365 52.6367C157.421 60.3339 154.373 68.286 151.829 76.234C148.548 86.4592 148.222 96.6862 150.908 105.036C153.998 114.633 160.946 121.455 170.997 124.769C173.55 125.609 176.779 126.469 180.195 127.385C194.044 131.095 213.03 136.168 218.077 147.41C220.211 152.166 219.64 157.734 216.382 163.969C203.229 189.112 169.866 187.918 145.914 184.832C133.032 183.173 122.165 185.834 112.692 192.958C110.828 194.321 109.283 196.066 108.159 198.077C107.035 200.088 106.358 202.319 106.172 204.622C105.593 210.421 107.697 216.631 111.789 221.235C116.393 226.425 122.73 230.887 128.836 235.197C142.706 244.971 157.045 255.081 153.62 274.64C150.119 294.625 128.602 315.81 109.345 318.241C96.5001 319.858 90.3777 310.005 85.678 299.11C80.2384 286.38 73.5794 274.183 65.7938 262.688C59.6452 253.662 50.7012 247.206 42.0612 240.951C33.0894 234.449 23.8108 227.726 17.9471 218.253C13.3726 210.861 12.6629 201.862 11.9731 193.164C11.8373 191.409 11.6945 189.603 11.5204 187.862C10.4181 176.836 8.97428 165.162 4.32097 154.545C-5.78913 131.462 -28.694 121.854 -51.9456 114.912C-70.3221 109.419 -87.8312 115.395 -99.2816 121.378C-103.481 123.571 -107.636 126.455 -111.661 129.247C-117.516 133.307 -123.501 137.46 -130.016 139.837L-130.459 140.644C-123.618 138.285 -117.39 133.979 -111.297 129.751C-107.294 126.974 -103.152 124.098 -98.9884 121.921C-87.6453 116.005 -70.2944 110.068 -52.1161 115.504C-29.0187 122.414 -6.2598 131.95 3.74232 154.796C8.35867 165.327 9.80624 176.938 10.901 187.929C11.065 189.665 11.2147 191.466 11.3471 193.219C12.0416 201.989 12.7574 211.066 17.4124 218.584C23.3383 228.16 32.6709 234.922 41.6915 241.464C50.2893 247.691 59.1805 254.123 65.2737 263.049C73.0342 274.513 79.6734 286.676 85.0991 299.369C88.2764 306.726 92.0886 313.633 98.1555 316.97C101.25 318.672 104.931 319.451 109.409 318.888C128.943 316.418 150.713 294.99 154.245 274.779Z" fill="#3B6149"/>
<path d="M138.457 260.395C133.73 251.183 123.737 245.303 114.077 239.604C100.616 231.682 87.9011 224.194 87.8817 208.484C87.8501 187.997 113.202 172.287 129.188 167.196C134.207 165.564 139.457 164.696 144.76 164.622C147.953 164.594 151.031 165.345 154.01 166.067C156.537 166.68 159.155 167.321 161.805 167.468C172.515 171.102 190.453 171.692 196.904 161.625C198.946 158.433 199.324 155.446 198.025 152.747C195.598 147.714 187.414 144.553 180.835 143.748C178.295 143.44 175.662 143.294 173.114 143.152C164.636 142.673 155.865 142.19 149.407 135.521C134.022 119.63 135.988 91.2979 144.763 70.272C145.53 68.4246 146.295 66.5999 147.061 64.798C155.581 44.5911 162.938 27.1393 161.44 4.11354C160.522 -10.0539 155.537 -44.158 129.186 -54.9715C111.845 -62.0875 100.857 -51.2783 90.2356 -40.8232C87.9326 -38.5561 85.5461 -36.2091 83.1107 -34.0626C76.4218 -26.424 68.4408 -18.1111 58.3203 -16.2239C51.6615 -14.9766 45.2686 -16.7305 39.0825 -18.4271C34.4359 -19.6806 29.6502 -21.0106 24.7012 -21.102C5.63953 -21.4631 -8.90144 -7.89353 -21.7295 4.07414L-22.9021 5.1657C-34.1324 15.6288 -41.4718 28.9398 -48.5679 41.8073C-50.9102 46.0759 -53.3256 50.4778 -55.9174 54.7828C-60.4657 62.3964 -66.1265 71.8683 -74.4697 75.888C-80.6713 78.8672 -87.4319 77.1802 -93.9034 74.098L-94.2053 74.6482C-88.1116 77.5183 -80.7251 79.5843 -74.1941 76.439C-65.6864 72.3448 -59.9729 62.7847 -55.3625 55.0663C-52.8097 50.792 -50.3749 46.379 -48.0222 42.1075C-40.9481 29.28 -33.6343 16.0157 -22.475 5.61769L-21.3058 4.52427C-8.5561 -7.36495 5.88355 -20.8383 24.6971 -20.4835C29.5742 -20.4056 34.3259 -19.0942 38.924 -17.8327C45.1805 -16.1277 51.6433 -14.3484 58.4459 -15.6165C68.7639 -17.534 76.8254 -25.9371 83.5503 -33.6254C85.9768 -35.7638 88.3634 -38.1108 90.6752 -40.3861C101.15 -50.6872 111.994 -61.3628 128.955 -54.3992C154.983 -43.7202 159.912 -9.89895 160.811 4.14117C162.294 27.0329 154.966 44.4177 146.479 64.556C145.718 66.3604 144.935 68.174 144.177 70.0366C135.327 91.2472 133.37 119.853 148.954 135.944C155.58 142.789 164.475 143.288 173.078 143.765C175.614 143.911 178.236 144.054 180.759 144.361C187.176 145.147 195.13 148.189 197.456 153.012C198.653 155.502 198.287 158.292 196.364 161.289C190.1 171.098 172.463 170.457 161.95 166.875L161.864 166.854C159.255 166.721 156.652 166.084 154.137 165.473C151.122 164.735 148.003 163.979 144.737 164.006C139.369 164.086 134.056 164.969 128.977 166.624C112.829 171.769 87.2136 187.678 87.2454 208.486C87.2534 224.554 100.727 232.486 113.748 240.148C123.335 245.794 133.247 251.629 137.891 260.678C143.286 271.191 139.066 283.617 132.498 291.262C125.174 299.784 115.261 303.053 105.968 300.038C96.084 296.815 89.6966 285.314 84.5688 276.068C84.078 275.177 83.6037 274.313 83.1332 273.49C82.0858 271.611 81.0418 269.734 79.9978 267.858C75.7065 260.07 71.2666 252.023 65.6055 244.915C61.2026 239.398 55.6889 235.037 50.3585 230.824C46.0724 227.442 41.6472 223.935 37.8399 219.866C28.8877 210.296 25.3391 199.531 22.8224 189.338C22.0633 186.251 21.3669 183.145 20.6297 179.857C16.3665 160.85 11.96 141.195 -3.79575 129.012C-11.5475 119.972 -25.782 114.135 -37.2164 109.443C-39.0154 108.701 -40.7601 107.989 -42.4104 107.289C-44.7207 106.305 -47.0903 105.18 -49.6007 103.981C-57.4447 100.248 -65.557 96.3848 -73.6022 96.1705C-82.349 95.9481 -89.4943 100.687 -96.4054 105.273C-97.9499 106.295 -99.5459 107.362 -101.106 108.332C-104.719 110.317 -108.3 112.653 -111.77 114.9C-114.06 116.396 -116.377 117.901 -118.727 119.321L-119.32 120.402C-116.633 118.802 -114.01 117.093 -111.417 115.406C-107.975 113.154 -104.394 110.834 -100.791 108.843C-99.2068 107.87 -97.6056 106.801 -96.0559 105.778C-89.2309 101.245 -82.1699 96.5546 -73.6147 96.7802C-65.702 96.9867 -57.6491 100.822 -49.8645 104.526C-47.3489 105.723 -44.9676 106.859 -42.6487 107.844C-40.9984 108.544 -39.2628 109.272 -37.4513 110C-26.08 114.67 -11.9274 120.48 -4.21966 129.438C11.4011 141.53 15.7819 161.071 20.0225 179.975C20.756 183.27 21.4559 186.377 22.2184 189.466C24.7425 199.75 28.3316 210.594 37.3805 220.268C41.2277 224.386 45.6751 227.9 49.9778 231.3C55.2814 235.49 60.7424 239.827 65.1318 245.28C70.7599 252.344 75.1886 260.363 79.4614 268.136C80.5088 270.014 81.5436 271.908 82.6036 273.771C83.0688 274.596 83.5432 275.46 84.036 276.339C88.6109 284.591 94.1675 294.615 102.363 299.123C103.454 299.727 104.602 300.225 105.788 300.608C115.325 303.718 125.486 300.373 132.975 291.654C141.041 282.277 143.24 269.715 138.457 260.395Z" fill="#3B6149"/>
<path d="M49.5776 209.716C36.0882 202.296 30.8419 184.767 26.2128 169.305C24.872 164.825 23.6026 160.593 22.1987 156.799C21.1548 154.592 20.1732 152.377 19.224 150.231C15.588 142.005 12.1514 134.237 5.29121 127.207C-3.25415 118.456 -14.1585 112.38 -24.7107 106.506L-27.2425 105.113C-39.0758 98.5346 -52.4885 91.0872 -51.0559 75.4822C-50.2097 66.3011 -46.6232 57.7548 -43.1254 49.5069C-41.6088 45.9389 -40.0587 42.2375 -38.7541 38.5573C-30.6904 22.471 -15.8151 1.40113 9.35646 -7.84468C18.7535 -9.91711 27.3219 -8.42092 37.2085 -2.98263C38.2253 -2.42332 39.3055 -1.79446 40.398 -1.124C41.391 -0.521343 42.3272 0.0240959 43.2254 0.518148C53.1934 6.00119 60.4467 6.12276 66.8198 0.941259C72.3252 -3.57572 77.3555 -10.0732 82.6841 -16.9537C94.2299 -31.8755 106.149 -47.2692 124.698 -44.9112C127.757 -44.5328 130.722 -43.5724 133.431 -42.0828C151.492 -32.1477 156.751 1.37755 154.621 20.906C153.162 34.2434 147.542 45.8691 142.12 57.1175C137.979 65.6932 133.703 74.5465 131.283 84.1034C128.387 95.5649 128.305 107.646 128.236 119.303C128.224 121.508 128.204 123.707 128.177 125.9C127.952 141.106 124.412 149.061 113.604 158.658C110.282 161.607 106.788 164.46 103.398 167.254C95.9858 173.34 88.3117 179.638 82.0451 187.118C80.0793 189.462 78.2402 192.653 76.2986 196.03C72.0523 203.415 67.2367 211.789 59.6722 212.998L59.5775 212.994C56.0771 212.523 52.6861 211.412 49.5776 209.716V209.716ZM36.9212 -2.45904C27.1837 -7.8153 18.7442 -9.29705 9.55533 -7.26638C-15.3913 1.89914 -30.1712 22.8435 -38.1684 38.7926C-39.4691 42.4576 -41.033 46.1601 -42.5379 49.7389C-46.0035 57.9523 -49.5885 66.4475 -50.4249 75.5384C-51.8221 90.7332 -38.5994 98.0846 -26.9304 104.568L-24.3985 105.961C-13.8091 111.856 -2.86069 117.956 5.74642 126.771C12.6851 133.883 16.1443 141.699 19.806 149.982C20.7537 152.123 21.7338 154.333 22.7857 156.557C24.2162 160.383 25.4746 164.635 26.8185 169.126C31.4185 184.472 36.6224 201.869 49.8882 209.166C52.9135 210.81 56.2116 211.888 59.6153 212.346C66.8787 211.171 71.5932 202.941 75.7663 195.69C77.7207 192.289 79.5726 189.075 81.5843 186.695C87.8886 179.171 95.5786 172.86 103.021 166.751C106.398 163.981 109.889 161.108 113.202 158.168C123.859 148.709 127.354 140.86 127.571 125.862C127.606 123.667 127.621 121.47 127.635 119.264C127.71 107.557 127.779 95.4654 130.702 83.9231C133.126 74.3031 137.419 65.4112 141.57 56.8155C146.976 45.6141 152.571 34.0351 154.014 20.8064C156.13 1.43974 150.958 -31.7773 133.147 -41.5744C130.506 -43.023 127.616 -43.9584 124.634 -44.3296C106.436 -46.6424 94.6191 -31.3706 83.1869 -16.6076C77.84 -9.69384 72.7899 -3.16816 67.2281 1.38726C58.7239 8.36171 49.3037 4.52588 42.9589 1.03583C42.0506 0.536182 41.116 -0.00404988 40.1045 -0.621227C39.0012 -1.28021 37.9346 -1.9016 36.9212 -2.45904Z" fill="#3B6149"/>
<path d="M55.2884 155.043C47.7472 150.895 43.8867 142.628 40.1522 134.631C38.9459 132.053 37.8057 129.619 36.5636 127.356C30.6996 116.694 23.7477 107.716 15.8813 100.719C12.3283 97.545 8.26972 94.874 4.36155 92.2988C-1.52783 88.421 -7.61298 84.4096 -12.1454 78.5736C-18.0262 70.9974 -19.5168 60.5829 -16.5642 47.6113C-12.5372 36.646 -7.26239 30.1049 -0.430279 27.5767C4.12864 25.8863 8.33729 26.1609 12.4316 28.4131C17.0648 30.9616 20.7891 35.5847 24.3941 40.0553L25.8639 41.8797C30.8054 47.919 35.0654 51.7426 39.6749 54.2781C44.7588 57.0746 50.2999 58.2342 56.6506 57.8376C66.7812 57.2106 77.3743 51.7845 84.2818 43.667C87.5892 39.7947 90.4848 32.427 93.5493 24.631C100.149 7.83515 107.627 -11.2042 122.911 -8.27598C123.675 -8.01475 124.415 -7.68748 125.123 -7.29793C133.179 -2.86638 135.755 9.00441 134.732 18.7962C133.577 29.7476 128 39.4045 123.263 46.589C116.192 57.3125 110.575 66.4957 108.073 78.8863C107.05 83.9673 106.325 89.2124 105.626 94.2895C104.732 100.8 103.808 107.525 102.22 114.023C97.5513 132.984 79.4952 158.178 57.656 156.124L57.5705 156.103C56.7892 155.796 56.027 155.442 55.2884 155.043V155.043ZM12.1302 28.9462C8.20199 26.7854 4.16519 26.5272 -0.224074 28.1416C-6.87324 30.6099 -12.0338 37.0314 -15.9902 47.7794C-18.886 60.5349 -17.4364 70.7748 -11.6765 78.1934C-7.20524 83.9479 -1.1639 87.9267 4.69342 91.7824C8.61827 94.3755 12.6821 97.0449 16.2838 100.259C24.2034 107.32 31.2108 116.341 37.1073 127.065C38.3609 129.347 39.5042 131.791 40.7102 134.378C44.4028 142.283 48.2147 150.453 55.583 154.506C56.2856 154.893 57.0113 155.235 57.7558 155.532C79.2264 157.518 97.0177 132.629 101.615 113.886C103.198 107.424 104.121 100.707 105.011 94.2203C105.709 89.138 106.432 83.8878 107.465 78.773C109.999 66.2745 115.633 57.0442 122.741 46.2625C127.441 39.1362 132.979 29.5664 134.111 18.7455C135.117 9.15297 132.633 -2.4504 124.828 -6.74399C124.164 -7.10725 123.472 -7.41673 122.759 -7.66935C108.029 -10.497 100.645 8.29022 94.1334 24.8611C91.0465 32.7141 88.1374 40.1224 84.7621 44.0702C77.7389 52.3021 66.9811 57.8111 56.6917 58.4462C50.2097 58.8487 44.5489 57.6582 39.3735 54.8113C34.6894 52.2348 30.3705 48.3657 25.3829 42.2576C24.8897 41.6607 24.3987 41.052 23.9027 40.4362C20.3394 36.0102 16.6549 31.4351 12.1302 28.9462Z" fill="#3B6149"/>
<path d="M61.4329 125.302C60.9115 125.014 60.4058 124.698 59.9181 124.356C50.4694 117.774 46.067 103.974 46.605 93.7461L46.6197 93.663C51.1088 81.0112 69.11 77.8933 79.3974 78.9024C80.0695 79.1253 80.7202 79.4091 81.3413 79.7502C91.4007 85.2836 89.3017 102.875 85.9436 111.07C83.6637 116.632 78.5968 123.96 71.8683 126.267C70.1753 126.875 68.3628 127.103 66.5593 126.937C64.7558 126.77 63.0057 126.212 61.4329 125.302V125.302ZM47.2214 93.829C46.7079 103.883 51.0205 117.413 60.2684 123.854C60.7386 124.183 61.2257 124.487 61.7275 124.766V124.766C63.2236 125.632 64.8889 126.164 66.6051 126.323C68.3213 126.482 70.0463 126.265 71.6573 125.687C78.193 123.425 83.1354 116.276 85.3684 110.831C88.6535 102.818 90.7638 85.6322 81.0467 80.2871C80.4777 79.9767 79.8845 79.7129 79.2733 79.4984C69.2486 78.5252 51.6162 81.5421 47.2214 93.829V93.829Z" fill="#3B6149"/>
</g>
<defs>
<clipPath id="clip0_508_5029">
<rect width="255" height="321" fill="white"/>
</clipPath>
</defs>
</svg>
