<svg width="255" height="321" viewBox="0 0 255 321" fill="none" xmlns="http://www.w3.org/2000/svg">
<g clip-path="url(#clip0_510_5078)">
<path d="M1.82255 67.5922C7.09719 83.0402 21.314 84.6358 35.0631 86.1761C41.0349 86.8476 47.2249 87.5378 52.4333 89.3956C56.9774 91.0139 60.7616 94.4839 62.5568 98.6796C63.2897 100.318 63.6619 102.09 63.6488 103.879C63.6358 105.667 63.2378 107.433 62.4811 109.059C58.6064 117.643 52.0518 123.659 42.434 127.447C24.1742 134.619 -0.0450669 146.835 0.428351 170.014C0.546721 175.841 2.3731 180.134 5.85751 182.752C13.9681 188.889 29.4918 185.07 40.822 182.285C43.5813 181.603 46.1909 180.963 48.3049 180.569C67.29 177.019 77.3107 192.598 80.1027 207.02C81.3845 213.608 82.3204 220.403 83.2312 226.975C83.8853 231.746 84.5645 236.678 85.3715 241.486L85.3965 241.563C87.2255 244.937 88.7178 248.452 90.1602 251.85C92.2738 256.815 94.4529 261.953 97.7233 266.738C111.276 286.581 126.377 297.514 142.611 299.231C149.662 299.976 162.809 299.824 171.656 290.418C176.761 284.993 178.419 277.686 180.025 270.622C180.264 269.561 180.504 268.51 180.753 267.47C183.407 256.402 187.956 249.496 195.506 245.072C198.533 243.301 201.697 241.984 204.759 240.713C210.42 238.361 215.77 236.12 220.305 231.265C226.379 224.746 229.358 215.324 231.986 207.004C232.347 205.875 232.699 204.762 233.05 203.668C236.164 194.124 239.588 183.007 241.213 171.874C241.648 168.878 241.893 165.435 242.143 161.755C243.072 148.57 244.221 132.684 255.05 126.235L255.05 125.637C243.753 132.071 242.589 148.285 241.641 161.724C241.381 165.376 241.137 168.829 240.711 171.809C239.098 182.902 235.665 193.995 232.57 203.524C232.215 204.615 231.859 205.727 231.502 206.859C228.887 215.137 225.926 224.497 219.93 230.933C215.471 235.724 210.168 237.929 204.556 240.263C201.479 241.54 198.302 242.86 195.244 244.649C187.566 249.146 182.945 256.148 180.26 267.36C180.009 268.402 179.764 269.455 179.526 270.518C177.939 277.518 176.293 284.756 171.282 290.083C162.584 299.333 149.615 299.48 142.658 298.743C126.576 297.042 111.597 286.183 98.1348 266.465C94.8925 261.717 92.7165 256.604 90.6185 251.66C89.1761 248.268 87.6838 244.756 85.8516 241.37C85.0509 236.58 84.3748 231.667 83.7238 226.914C82.8161 220.333 81.8834 213.531 80.5953 206.929C78.9445 198.431 75.2051 191.079 70.0669 186.222C64.1581 180.641 56.6015 178.519 48.2142 180.078C46.0847 180.476 43.4688 181.121 40.7002 181.801C29.4759 184.555 14.0925 188.34 6.16289 182.356C2.80949 179.825 1.05179 175.669 0.933495 169.999C0.466473 147.13 24.5018 135.024 42.6213 127.907C52.367 124.079 59.0119 117.981 62.9395 109.271C63.7269 107.584 64.141 105.751 64.1546 103.894C64.1682 102.038 63.7808 100.199 63.0182 98.4989C61.1762 94.1775 57.2797 90.6062 52.6015 88.9418C47.3338 87.0625 41.1251 86.3694 35.1377 85.6948C21.5445 84.173 7.48987 82.5957 2.31828 67.4483C-2.96573 51.9696 4.01336 28.6504 16.6749 19.4578C25.1222 13.3294 33.2725 17.9147 40.8216 23.7877C49.606 30.6702 59.045 36.7029 69.0072 41.8017C76.8547 45.7921 85.6799 46.8821 94.2119 47.9474C103.075 49.059 112.24 50.2075 120.059 54.624C126.16 58.0707 130.155 64.1534 134.018 70.0305C134.795 71.2176 135.597 72.4384 136.396 73.601C141.455 80.9629 147.006 88.6501 154.415 94.3451C170.517 106.729 190.429 104.627 209.551 100.506C224.667 97.2544 234.717 86.236 240.485 77.5642C242.6 74.3854 244.417 70.7343 246.176 67.1997C248.737 62.0587 251.354 56.8013 255.034 52.593L255.034 51.851C251.116 56.1725 248.388 61.6323 245.724 66.9848C243.974 70.501 242.164 74.1399 240.067 77.2941C234.349 85.877 224.395 96.8066 209.442 100.022C190.441 104.105 170.66 106.202 154.726 93.9435C147.377 88.2946 141.847 80.6534 136.808 73.313C136.018 72.1504 135.213 70.9357 134.439 69.7486C130.544 63.8224 126.516 57.6875 120.309 54.1826C112.405 49.7169 103.187 48.5623 94.2741 47.4416C85.7826 46.3793 77.0042 45.2862 69.2346 41.345C59.3021 36.2581 49.8904 30.242 41.1301 23.38C36.0297 19.4157 30.6553 16.0154 25.0736 16.0125C22.2267 16.011 19.3241 16.8895 16.3784 19.0253C3.53611 28.3527 -3.52703 51.9417 1.82255 67.5922Z" fill="#3B6149"/>
<path d="M18.561 71.6269C25.4765 76.3005 34.8189 76.5752 43.8557 76.8527C56.441 77.2241 68.331 77.5798 74.4422 88.6709C82.4168 103.133 70.6032 124.073 61.2847 133.875C58.3722 136.976 55.0002 139.627 51.2823 141.738C49.0379 142.997 46.5717 143.661 44.1866 144.307C42.1631 144.855 40.0648 145.418 38.1351 146.343C29.1585 147.933 16.2555 154.479 15.6056 164.095C15.4014 167.143 16.2944 169.4 18.2596 170.802C21.928 173.417 28.9373 172.473 33.8974 170.488C35.8116 169.72 37.7288 168.801 39.5837 167.913C45.7594 164.96 52.144 161.897 59.2952 164.102C76.3329 169.357 85.9414 190.137 87.9028 208.398C88.0783 210.001 88.2454 211.587 88.4042 213.157C90.2281 230.741 91.8044 245.926 101.8 261.613C107.948 271.266 124.707 293.426 147.522 290.837C162.536 289.134 166.103 277.232 169.549 265.723C170.296 263.227 171.071 260.643 171.959 258.181C173.719 250.188 176.131 241.217 182.549 235.955C186.77 232.489 191.967 231.247 196.996 230.045C200.766 229.127 204.663 228.209 208.195 226.352C221.802 219.209 226.809 203.977 231.226 190.543L231.631 189.316C235.504 177.565 235.523 165.312 235.542 153.467C235.54 149.542 235.538 145.494 235.698 141.446C235.956 134.302 236.279 125.413 240.613 119.334C243.838 114.822 249.269 113.39 255.038 113.056L255.038 112.55C249.618 112.887 243.598 114.295 240.204 119.052C235.783 125.247 235.457 134.219 235.196 141.462C235.051 145.472 235.044 149.535 235.04 153.466C235.021 165.275 235.002 177.485 231.154 189.163L230.752 190.389C226.359 203.738 221.387 218.862 207.958 225.914C204.482 227.752 200.616 228.67 196.877 229.563C191.795 230.787 186.539 232.039 182.225 235.575C175.679 240.935 173.245 250.001 171.478 258.043C170.594 260.495 169.819 263.08 169.069 265.585C165.666 276.929 162.149 288.68 147.463 290.344C124.929 292.902 108.319 270.92 102.233 261.349C92.3001 245.752 90.7301 230.625 88.9094 213.102C88.7464 211.532 88.5959 209.947 88.408 208.337C86.4278 189.916 76.7068 168.947 59.4509 163.627C52.1125 161.363 45.6344 164.463 39.3715 167.465C37.5228 168.347 35.6149 169.263 33.7132 170.025C28.8747 171.961 22.0743 172.899 18.5587 170.395C16.7464 169.1 15.9221 166.987 16.1171 164.123C16.7359 154.761 29.4456 148.368 38.2632 146.818L38.3318 146.8C40.2272 145.881 42.313 145.321 44.3271 144.776C46.7434 144.127 49.2408 143.451 51.5383 142.164C55.2992 140.024 58.7101 137.338 61.656 134.197C71.0679 124.294 82.9905 103.112 74.8912 88.4228C68.6489 77.074 56.051 76.6996 43.8772 76.3407C34.9121 76.0724 25.6446 75.7978 18.8507 71.207C10.9589 65.8736 9.11687 55.4562 10.7904 47.5059C12.6568 38.642 18.3912 32.4846 26.1267 31.0075C34.3612 29.4479 43.3384 35.0947 50.5501 39.6366C51.2425 40.0755 51.9132 40.502 52.5651 40.901C54.0343 41.8216 55.5003 42.7423 56.9663 43.663C63.0208 47.499 69.2812 51.461 76.0398 54.2855C81.2921 56.4745 86.8804 57.4157 92.2816 58.3231C96.6226 59.0489 101.11 59.8087 105.38 61.2061C115.419 64.4923 122.105 70.7204 127.839 76.945C129.574 78.8317 131.271 80.7552 133.068 82.7922C143.458 94.5663 154.2 106.742 170.061 109.234C179.046 112.612 191.369 111.211 201.269 110.087C202.828 109.913 204.337 109.739 205.774 109.593C207.789 109.392 209.9 109.267 212.138 109.139C219.129 108.732 226.36 108.313 232.127 105.341C238.393 102.103 241.602 95.9813 244.705 90.0587C245.399 88.7375 246.113 87.3641 246.839 86.0735C248.621 83.2687 250.244 80.2277 251.823 77.294C252.861 75.3474 253.914 73.3855 255.023 71.4696L255.022 70.4761C253.745 72.6495 252.555 74.8751 251.377 77.073C249.82 80.0006 248.19 83.0293 246.418 85.8341C245.676 87.1369 244.96 88.5134 244.262 89.8377C241.2 95.6898 238.032 101.744 231.9 104.906C226.229 107.831 219.051 108.247 212.113 108.652C209.871 108.782 207.748 108.904 205.727 109.108C204.29 109.255 202.781 109.414 201.219 109.603C191.372 110.717 179.118 112.106 170.195 108.768C154.465 106.289 143.785 94.1831 133.452 82.4735C131.654 80.4304 129.954 78.5069 128.216 76.6202C122.441 70.3342 115.696 64.0662 105.548 60.7431C101.232 59.3273 96.7253 58.5706 92.3656 57.8386C86.9924 56.9374 81.4508 55.9931 76.2329 53.844C69.5148 51.0379 63.2732 47.0913 57.2374 43.2583C55.7683 42.3376 54.3022 41.4017 52.8299 40.4963C52.1811 40.0943 51.5105 39.6678 50.8211 39.2381C44.3861 35.1841 36.5693 30.2586 29.0294 30.2547C28.0236 30.2514 27.0199 30.3454 26.033 30.5352C18.0885 32.0398 12.2076 38.3474 10.3008 47.4137C8.24152 57.1698 11.5643 66.898 18.561 71.6269Z" fill="#3B6149"/>
<path d="M101.026 72.9338C113.437 72.9402 123.948 83.2885 133.22 92.4157C135.906 95.0603 138.445 97.5576 140.91 99.6931C142.504 100.847 144.057 102.031 145.561 103.179C151.323 107.579 156.766 111.734 164.341 114.037C173.776 116.903 183.838 116.963 193.573 117.018L195.903 117.019C206.816 117.073 219.183 117.129 224.228 128.71C227.194 135.525 227.978 142.955 228.708 150.14C229.021 153.25 229.363 156.466 229.87 159.573C230.417 174.068 228.085 194.728 213.89 211.031C208.055 216.142 201.421 218.411 192.325 218.406C191.39 218.406 190.382 218.381 189.35 218.331C188.415 218.291 187.542 218.269 186.715 218.269C177.545 218.264 172.373 220.993 169.881 227.128C167.745 232.456 166.713 238.999 165.619 245.929C163.254 260.953 160.808 276.455 146.788 281.989C144.48 282.909 142.012 283.381 139.52 283.38C122.903 283.372 106.175 261.727 100.099 247.103C95.9532 237.114 95.4116 226.719 94.8763 216.667C94.4732 209.001 94.0575 201.086 92.0579 193.395C89.6553 184.173 85.0234 175.606 80.5476 167.343C79.7007 165.781 78.8611 164.219 78.0287 162.659C72.2856 151.829 71.6989 144.834 75.6098 133.859C76.8117 130.486 78.1726 127.114 79.4837 123.824C82.3581 116.648 85.3354 109.219 86.8593 101.502C87.3383 99.0829 87.3991 96.1146 87.4599 92.9747C87.5935 86.1092 87.7455 78.3238 92.6204 74.5332L92.689 74.4995C95.3447 73.4732 98.172 72.9423 101.026 72.9338V72.9338ZM192.325 217.925C201.284 217.93 207.821 215.701 213.525 210.699C227.593 194.541 229.905 174.006 229.364 159.634C228.861 156.54 228.529 153.317 228.203 150.204C227.463 143.056 226.699 135.663 223.761 128.915C218.85 117.638 206.655 117.576 195.894 117.525L193.564 117.524C183.795 117.469 173.692 117.409 164.189 114.522C156.526 112.19 151.048 108.011 145.246 103.58C143.746 102.436 142.195 101.255 140.589 100.092C138.093 97.9438 135.554 95.428 132.861 92.7773C123.655 83.7206 113.225 73.4491 101.02 73.4428C98.2448 73.4556 95.4962 73.974 92.9138 74.9718C88.2383 78.6214 88.1019 86.2659 87.9682 93.0087C87.9074 96.1701 87.8466 99.1598 87.3489 101.622C85.8156 109.385 82.8322 116.829 79.9453 124.033C78.6342 127.301 77.2827 130.686 76.0839 134.049C72.2259 144.868 72.8032 151.771 78.4714 162.451C79.2986 164.015 80.1413 165.573 80.9871 167.138C85.4785 175.438 90.1229 184.007 92.5381 193.297C94.5595 201.034 94.9784 208.982 95.3814 216.667C95.9105 226.679 96.4521 237.031 100.567 246.938C106.59 261.442 123.137 282.903 139.523 282.911C141.951 282.909 144.356 282.448 146.607 281.553C160.362 276.124 162.783 260.747 165.13 245.879C166.224 238.919 167.259 232.349 169.42 226.971C172.721 218.743 180.865 217.796 186.703 217.799C187.538 217.8 188.408 217.819 189.363 217.862C190.398 217.9 191.393 217.925 192.325 217.925Z" fill="#3B6149"/>
<path d="M118.212 113.776C125.15 113.78 131.086 118.122 136.829 122.323C138.682 123.676 140.432 124.952 142.188 126.069C150.47 131.326 158.866 134.97 167.14 136.86C170.882 137.724 174.786 138.036 178.547 138.338C184.213 138.792 190.069 139.264 195.537 141.628C202.632 144.698 207.728 151.477 210.677 161.788C212.088 171.098 210.9 177.767 207.055 182.205C204.49 185.169 201.41 186.608 197.643 186.607C193.38 186.604 188.955 184.784 184.672 183.024L182.926 182.306C177.09 179.957 172.596 178.909 168.356 178.907C163.678 178.905 159.313 180.236 154.98 182.982C148.066 187.357 142.688 195.302 140.959 203.718C140.125 207.738 140.939 214.067 141.8 220.765C143.657 235.193 145.764 251.547 133.829 255.411C133.188 255.523 132.538 255.579 131.887 255.578C124.475 255.574 118.047 248.187 114.969 240.872C111.535 232.687 111.727 223.699 112.284 216.785C113.118 206.464 113.522 197.795 110.48 188.07C109.23 184.083 107.707 180.096 106.23 176.238C104.334 171.291 102.377 166.181 100.977 160.974C96.9154 145.766 99.893 120.957 116.12 113.931L116.188 113.913C116.859 113.826 117.535 113.781 118.212 113.776V113.776ZM197.649 186.113C201.263 186.115 204.215 184.73 206.69 181.886C210.429 177.561 211.583 171.021 210.206 161.892C207.301 151.756 202.302 145.084 195.353 142.079C189.96 139.748 184.148 139.282 178.513 138.832C174.733 138.523 170.826 138.215 167.034 137.342C158.698 135.427 150.246 131.774 141.917 126.486C140.145 125.36 138.389 124.077 136.533 122.718C130.856 118.566 124.991 114.273 118.212 114.27C117.566 114.269 116.92 114.309 116.279 114.388C100.339 121.319 97.4299 145.809 101.457 160.836C102.847 166.016 104.802 171.12 106.691 176.048C108.171 179.91 109.698 183.9 110.954 187.914C114.014 197.728 113.617 206.436 112.78 216.813C112.225 223.672 112.027 232.583 115.427 240.667C118.44 247.835 124.699 255.069 131.88 255.072C132.49 255.071 133.099 255.021 133.701 254.923C145.206 251.203 143.13 235.064 141.298 220.829C140.431 214.082 139.611 207.719 140.463 203.62C142.23 195.078 147.692 187.01 154.715 182.568C159.139 179.767 163.6 178.411 168.362 178.413C172.671 178.416 177.224 179.473 183.119 181.852C183.699 182.083 184.282 182.322 184.872 182.565C189.107 184.308 193.486 186.111 197.649 186.113Z" fill="#3B6149"/>
<path d="M125.415 137.174C125.895 137.175 126.375 137.202 126.852 137.255C136.083 138.238 144.55 146.279 148.139 153.714L148.161 153.778C149.901 164.459 138.393 173.649 130.733 176.929C130.172 177.033 129.602 177.085 129.03 177.085C119.776 177.08 114.43 163.837 113.622 156.744C113.074 151.929 113.809 144.785 117.668 140.543C118.628 139.457 119.82 138.592 121.158 138.009C122.497 137.427 123.95 137.142 125.415 137.174V137.174ZM147.672 153.894C144.132 146.591 135.833 138.707 126.799 137.745C126.34 137.695 125.877 137.67 125.415 137.668V137.668C124.022 137.636 122.639 137.907 121.364 138.461C120.09 139.014 118.956 139.837 118.042 140.871C114.302 145.006 113.585 151.976 114.121 156.689C114.91 163.625 120.09 176.587 129.03 176.591C129.553 176.59 130.074 176.546 130.589 176.46C138.05 173.256 149.336 164.281 147.672 153.894V153.894Z" fill="#3B6149"/>
</g>
<defs>
<clipPath id="clip0_510_5078">
<rect width="255" height="321" fill="white"/>
</clipPath>
</defs>
</svg>
